<?xml version="1.0" encoding="UTF-8"?>
<svg width="1200" height="900" viewBox="0 0 1200 900" fill="none" xmlns="http://www.w3.org/2000/svg">
  <defs>
    <linearGradient id="pageBg" x1="174" y1="84" x2="978" y2="816" gradientUnits="userSpaceOnUse">
      <stop offset="0" stop-color="#f8f6ef"/>
      <stop offset="1" stop-color="#edf1df"/>
    </linearGradient>
    <linearGradient id="glassBody" x1="354" y1="214" x2="780" y2="744" gradientUnits="userSpaceOnUse">
      <stop offset="0" stop-color="#ffffff" stop-opacity="0.82"/>
      <stop offset="0.45" stop-color="#f4efe6" stop-opacity="0.66"/>
      <stop offset="1" stop-color="#ece5d8" stop-opacity="0.78"/>
    </linearGradient>
    <linearGradient id="pickleFill-front" x1="364" y1="452" x2="742" y2="700" gradientUnits="userSpaceOnUse">
      <stop offset="0" stop-color="#c59b59"/>
      <stop offset="0.5" stop-color="#8a6536"/>
      <stop offset="1" stop-color="#65451f"/>
    </linearGradient>
    <radialGradient id="glow" cx="0" cy="0" r="1" gradientUnits="userSpaceOnUse" gradientTransform="translate(924 186) rotate(141.201) scale(322.174 479.198)">
      <stop stop-color="#d8ea61" stop-opacity="0.28"/>
      <stop offset="1" stop-color="#d8ea61" stop-opacity="0"/>
    </radialGradient>
  </defs>
  <rect width="1200" height="900" fill="url(#pageBg)"/>
  <circle cx="910" cy="180" r="250" fill="url(#glow)"/>
  <circle cx="214" cy="760" r="190" fill="#2e7d32" opacity="0.06"/>
  <rect x="92" y="98" width="1016" height="704" rx="54" fill="#ffffff" fill-opacity="0.54"/>
  <rect x="92" y="98" width="1016" height="704" rx="54" stroke="#e0dbc9" stroke-width="2"/>
  <text x="118" y="158" font-family="Comfortaa, sans-serif" font-size="30" letter-spacing="3" fill="#2f6b3b">AahaFood Signature Pantry</text>
  <text x="118" y="204" font-family="Comfortaa, sans-serif" font-size="18" letter-spacing="2" fill="#777368">Homemade, premium, and packed with care</text>
  
    <g>
      <ellipse cx="560" cy="792" rx="228" ry="32" fill="#79835f" opacity="0.12"/>
      <g>
        <rect x="366" y="152" width="392" height="84" rx="30" fill="#1f1f1f"/>
        <rect x="384" y="170" width="356" height="52" rx="22" fill="#2d2d2d"/>
      </g>
      
      <g opacity="0.92">
        <path d="M430 604 C450 594, 480 596, 496 610 C472 620, 450 620, 430 604 Z" fill="#8a6536"/>
        <path d="M512 654 C534 642, 566 644, 582 660 C556 670, 534 670, 512 654 Z" fill="#65451f"/>
        <path d="M588 612 C612 598, 642 602, 660 620 C632 632, 610 630, 588 612 Z" fill="#c59b59"/>
        <path d="M662 670 C686 656, 716 660, 734 678 C706 688, 684 688, 662 670 Z" fill="#8a6536"/>
        <circle cx="522" cy="712" r="11" fill="#c59b59" opacity="0.85"/>
        <circle cx="558" cy="718" r="10" fill="#65451f" opacity="0.8"/>
      </g>
    
      <rect x="352" y="218" width="416" height="520" rx="72" fill="url(#glassBody)" stroke="#d9d4c7" stroke-width="4"/>
      <ellipse cx="560" cy="218" rx="208" ry="28" fill="#ffffff" opacity="0.18"/>
      <ellipse cx="560" cy="738" rx="194" ry="24" fill="#ffffff" opacity="0.14"/>
      <path d="M406 254 C392 334, 394 618, 422 694" stroke="#ffffff" stroke-width="18" stroke-linecap="round" opacity="0.38"/>
      <path d="M714 254 C724 320, 722 620, 698 694" stroke="#ffffff" stroke-width="10" stroke-linecap="round" opacity="0.2"/>
      
    <g>
      <rect x="360" y="320" width="420" height="280" rx="34" fill="#fffaf0" stroke="#d5d4cb" stroke-width="3"/>
      <rect x="388" y="347" width="364" height="22" rx="11" fill="#d9e577" opacity="0.45"/>
      <image href="/brand/logo-full-color.png" x="402" y="365" width="250" height="70" preserveAspectRatio="xMinYMid meet"/>
      
    <rect x="708" y="362" width="34" height="34" rx="5" fill="#ffffff" stroke="#2E7D32" stroke-width="3"/>
    <circle cx="725" cy="379" r="8" fill="#2E7D32"/>
  
      <g font-family="Comfortaa, sans-serif" fill="#2a2a2a" font-weight="700">
        <text x="590" y="432" font-size="34">Royal Whole Cumin</text>
      </g>
      <text x="590" y="548" font-family="Comfortaa, sans-serif" font-size="18" letter-spacing="4" text-transform="uppercase" fill="#6c6b67">Whole Spices</text>
      <rect x="396" y="440" width="174" height="146" rx="28" fill="#f6f1e4"/>
      <image href="/products/whole-cumin.svg" x="404" y="454" width="156" height="124" preserveAspectRatio="xMidYMid meet"/>
    </g>
  
    </g>
  
</svg>